<mxfile host="Electron" modified="2024-05-20T11:22:15.149Z" agent="Mozilla/5.0 (Windows NT 10.0; Win64; x64) AppleWebKit/537.36 (KHTML, like Gecko) draw.io/21.6.1 Chrome/112.0.5615.204 Electron/24.6.1 Safari/537.36" etag="k7KJdgMBxHEUUa451jET" version="21.6.1" type="device">
  <diagram name="PÃ¡gina-1" id="OONsC5dpwr_IFLMGyaqS">
    <mxGraphModel dx="928" dy="547" grid="1" gridSize="10" guides="1" tooltips="1" connect="1" arrows="1" fold="1" page="1" pageScale="1" pageWidth="1169" pageHeight="827" math="0" shadow="0">
      <root>
        <mxCell id="0" />
        <mxCell id="1" parent="0" />
        <mxCell id="OajQiKBjwdRNWky4LGf--1" value="Jugador" style="rounded=0;whiteSpace=wrap;html=1;" parent="1" vertex="1">
          <mxGeometry x="500" y="300" width="110" height="40" as="geometry" />
        </mxCell>
        <mxCell id="OajQiKBjwdRNWky4LGf--2" value="Zona" style="rounded=0;whiteSpace=wrap;html=1;" parent="1" vertex="1">
          <mxGeometry x="790" y="500" width="110" height="40" as="geometry" />
        </mxCell>
        <mxCell id="OajQiKBjwdRNWky4LGf--3" value="Escenario" style="rounded=0;whiteSpace=wrap;html=1;" parent="1" vertex="1">
          <mxGeometry x="790" y="340" width="110" height="40" as="geometry" />
        </mxCell>
        <mxCell id="OajQiKBjwdRNWky4LGf--4" value="Arma" style="rounded=0;whiteSpace=wrap;html=1;" parent="1" vertex="1">
          <mxGeometry x="500" y="100" width="110" height="40" as="geometry" />
        </mxCell>
        <mxCell id="OajQiKBjwdRNWky4LGf--5" value="Skin" style="rounded=0;whiteSpace=wrap;html=1;" parent="1" vertex="1">
          <mxGeometry x="840" y="100" width="110" height="40" as="geometry" />
        </mxCell>
        <mxCell id="OajQiKBjwdRNWky4LGf--6" value="Enemigo" style="rounded=0;whiteSpace=wrap;html=1;" parent="1" vertex="1">
          <mxGeometry x="1160" y="440" width="110" height="40" as="geometry" />
        </mxCell>
        <mxCell id="OajQiKBjwdRNWky4LGf--8" value="Runa" style="rounded=0;whiteSpace=wrap;html=1;" parent="1" vertex="1">
          <mxGeometry x="165" y="300" width="110" height="40" as="geometry" />
        </mxCell>
        <mxCell id="OajQiKBjwdRNWky4LGf--9" value="Recompensa" style="rounded=0;whiteSpace=wrap;html=1;" parent="1" vertex="1">
          <mxGeometry x="335" y="100" width="110" height="40" as="geometry" />
        </mxCell>
        <mxCell id="OajQiKBjwdRNWky4LGf--10" value="Mejora" style="rounded=0;whiteSpace=wrap;html=1;" parent="1" vertex="1">
          <mxGeometry y="100" width="110" height="40" as="geometry" />
        </mxCell>
        <mxCell id="OajQiKBjwdRNWky4LGf--11" value="Encuentro" style="rounded=0;whiteSpace=wrap;html=1;" parent="1" vertex="1">
          <mxGeometry x="500" y="500" width="110" height="40" as="geometry" />
        </mxCell>
        <mxCell id="OajQiKBjwdRNWky4LGf--12" value="Logro" style="rounded=0;whiteSpace=wrap;html=1;" parent="1" vertex="1">
          <mxGeometry x="335" y="500" width="110" height="40" as="geometry" />
        </mxCell>
        <mxCell id="OajQiKBjwdRNWky4LGf--13" value="Participa" style="rhombus;whiteSpace=wrap;html=1;" parent="1" vertex="1">
          <mxGeometry x="505" y="390" width="100" height="60" as="geometry" />
        </mxCell>
        <mxCell id="OajQiKBjwdRNWky4LGf--14" value="Pertenece" style="rhombus;whiteSpace=wrap;html=1;" parent="1" vertex="1">
          <mxGeometry x="795" y="410" width="100" height="60" as="geometry" />
        </mxCell>
        <mxCell id="OajQiKBjwdRNWky4LGf--15" value="Usa" style="rhombus;whiteSpace=wrap;html=1;" parent="1" vertex="1">
          <mxGeometry x="505" y="190" width="100" height="60" as="geometry" />
        </mxCell>
        <mxCell id="OajQiKBjwdRNWky4LGf--16" value="Tiene" style="rhombus;whiteSpace=wrap;html=1;" parent="1" vertex="1">
          <mxGeometry x="675" y="90" width="100" height="60" as="geometry" />
        </mxCell>
        <mxCell id="OajQiKBjwdRNWky4LGf--17" value="Tiene" style="rhombus;whiteSpace=wrap;html=1;" parent="1" vertex="1">
          <mxGeometry x="955" y="490" width="100" height="60" as="geometry" />
        </mxCell>
        <mxCell id="OajQiKBjwdRNWky4LGf--18" value="Recibe" style="rhombus;whiteSpace=wrap;html=1;" parent="1" vertex="1">
          <mxGeometry x="340" y="290" width="100" height="60" as="geometry" />
        </mxCell>
        <mxCell id="OajQiKBjwdRNWky4LGf--19" value="Es comprada por" style="rhombus;whiteSpace=wrap;html=1;" parent="1" vertex="1">
          <mxGeometry x="170" y="90" width="100" height="60" as="geometry" />
        </mxCell>
        <mxCell id="OajQiKBjwdRNWky4LGf--20" value="Tiene lugar" style="rhombus;whiteSpace=wrap;html=1;" parent="1" vertex="1">
          <mxGeometry x="650" y="490" width="100" height="60" as="geometry" />
        </mxCell>
        <mxCell id="OajQiKBjwdRNWky4LGf--21" value="" style="endArrow=none;html=1;rounded=0;entryX=1;entryY=0.5;entryDx=0;entryDy=0;exitX=0;exitY=0.5;exitDx=0;exitDy=0;" parent="1" source="OajQiKBjwdRNWky4LGf--19" target="OajQiKBjwdRNWky4LGf--10" edge="1">
          <mxGeometry width="50" height="50" relative="1" as="geometry">
            <mxPoint x="570" y="380" as="sourcePoint" />
            <mxPoint x="620" y="330" as="targetPoint" />
          </mxGeometry>
        </mxCell>
        <mxCell id="OajQiKBjwdRNWky4LGf--22" value="" style="endArrow=none;html=1;rounded=0;entryX=1;entryY=0.5;entryDx=0;entryDy=0;exitX=0;exitY=0.5;exitDx=0;exitDy=0;" parent="1" source="OajQiKBjwdRNWky4LGf--9" target="OajQiKBjwdRNWky4LGf--19" edge="1">
          <mxGeometry width="50" height="50" relative="1" as="geometry">
            <mxPoint x="180" y="130" as="sourcePoint" />
            <mxPoint x="120" y="130" as="targetPoint" />
          </mxGeometry>
        </mxCell>
        <mxCell id="OajQiKBjwdRNWky4LGf--24" value="" style="endArrow=none;html=1;rounded=0;exitX=0.5;exitY=0;exitDx=0;exitDy=0;entryX=0.5;entryY=1;entryDx=0;entryDy=0;" parent="1" source="OajQiKBjwdRNWky4LGf--18" target="OajQiKBjwdRNWky4LGf--9" edge="1">
          <mxGeometry width="50" height="50" relative="1" as="geometry">
            <mxPoint x="280" y="240" as="sourcePoint" />
            <mxPoint x="330" y="190" as="targetPoint" />
          </mxGeometry>
        </mxCell>
        <mxCell id="OajQiKBjwdRNWky4LGf--25" value="" style="endArrow=none;html=1;rounded=0;exitX=0;exitY=0.5;exitDx=0;exitDy=0;entryX=1;entryY=0.5;entryDx=0;entryDy=0;" parent="1" source="OajQiKBjwdRNWky4LGf--1" target="OajQiKBjwdRNWky4LGf--18" edge="1">
          <mxGeometry width="50" height="50" relative="1" as="geometry">
            <mxPoint x="400" y="300" as="sourcePoint" />
            <mxPoint x="400" y="150" as="targetPoint" />
          </mxGeometry>
        </mxCell>
        <mxCell id="OajQiKBjwdRNWky4LGf--26" value="" style="endArrow=none;html=1;rounded=0;exitX=1;exitY=0.5;exitDx=0;exitDy=0;entryX=0;entryY=0.5;entryDx=0;entryDy=0;" parent="1" source="OajQiKBjwdRNWky4LGf--8" target="OajQiKBjwdRNWky4LGf--18" edge="1">
          <mxGeometry width="50" height="50" relative="1" as="geometry">
            <mxPoint x="410" y="310" as="sourcePoint" />
            <mxPoint x="410" y="160" as="targetPoint" />
          </mxGeometry>
        </mxCell>
        <mxCell id="OajQiKBjwdRNWky4LGf--27" value="" style="endArrow=none;html=1;rounded=0;exitX=0.5;exitY=0;exitDx=0;exitDy=0;entryX=0.5;entryY=1;entryDx=0;entryDy=0;" parent="1" source="OajQiKBjwdRNWky4LGf--13" target="OajQiKBjwdRNWky4LGf--1" edge="1">
          <mxGeometry width="50" height="50" relative="1" as="geometry">
            <mxPoint x="420" y="320" as="sourcePoint" />
            <mxPoint x="420" y="170" as="targetPoint" />
          </mxGeometry>
        </mxCell>
        <mxCell id="OajQiKBjwdRNWky4LGf--28" value="" style="endArrow=none;html=1;rounded=0;exitX=0.5;exitY=0;exitDx=0;exitDy=0;entryX=0.5;entryY=1;entryDx=0;entryDy=0;" parent="1" source="OajQiKBjwdRNWky4LGf--11" target="OajQiKBjwdRNWky4LGf--13" edge="1">
          <mxGeometry width="50" height="50" relative="1" as="geometry">
            <mxPoint x="565" y="400" as="sourcePoint" />
            <mxPoint x="565" y="350" as="targetPoint" />
          </mxGeometry>
        </mxCell>
        <mxCell id="OajQiKBjwdRNWky4LGf--29" value="" style="endArrow=none;html=1;rounded=0;exitX=0.5;exitY=0;exitDx=0;exitDy=0;entryX=0.5;entryY=1;entryDx=0;entryDy=0;" parent="1" source="OajQiKBjwdRNWky4LGf--12" target="OajQiKBjwdRNWky4LGf--18" edge="1">
          <mxGeometry width="50" height="50" relative="1" as="geometry">
            <mxPoint x="565" y="510" as="sourcePoint" />
            <mxPoint x="565" y="460" as="targetPoint" />
          </mxGeometry>
        </mxCell>
        <mxCell id="OajQiKBjwdRNWky4LGf--30" value="" style="endArrow=none;html=1;rounded=0;exitX=0.5;exitY=0;exitDx=0;exitDy=0;entryX=0.5;entryY=1;entryDx=0;entryDy=0;" parent="1" source="OajQiKBjwdRNWky4LGf--1" target="OajQiKBjwdRNWky4LGf--15" edge="1">
          <mxGeometry width="50" height="50" relative="1" as="geometry">
            <mxPoint x="565" y="400" as="sourcePoint" />
            <mxPoint x="565" y="350" as="targetPoint" />
          </mxGeometry>
        </mxCell>
        <mxCell id="OajQiKBjwdRNWky4LGf--31" value="" style="endArrow=none;html=1;rounded=0;exitX=0.5;exitY=1;exitDx=0;exitDy=0;entryX=0.5;entryY=0;entryDx=0;entryDy=0;" parent="1" source="OajQiKBjwdRNWky4LGf--4" target="OajQiKBjwdRNWky4LGf--15" edge="1">
          <mxGeometry width="50" height="50" relative="1" as="geometry">
            <mxPoint x="565" y="310" as="sourcePoint" />
            <mxPoint x="565" y="260" as="targetPoint" />
          </mxGeometry>
        </mxCell>
        <mxCell id="OajQiKBjwdRNWky4LGf--32" value="" style="endArrow=none;html=1;rounded=0;exitX=1;exitY=0.5;exitDx=0;exitDy=0;entryX=0;entryY=0.5;entryDx=0;entryDy=0;" parent="1" source="OajQiKBjwdRNWky4LGf--11" target="OajQiKBjwdRNWky4LGf--20" edge="1">
          <mxGeometry width="50" height="50" relative="1" as="geometry">
            <mxPoint x="575" y="320" as="sourcePoint" />
            <mxPoint x="575" y="270" as="targetPoint" />
          </mxGeometry>
        </mxCell>
        <mxCell id="OajQiKBjwdRNWky4LGf--33" value="" style="endArrow=none;html=1;rounded=0;exitX=1;exitY=0.5;exitDx=0;exitDy=0;entryX=0;entryY=0.5;entryDx=0;entryDy=0;" parent="1" source="OajQiKBjwdRNWky4LGf--20" target="OajQiKBjwdRNWky4LGf--2" edge="1">
          <mxGeometry width="50" height="50" relative="1" as="geometry">
            <mxPoint x="585" y="330" as="sourcePoint" />
            <mxPoint x="585" y="280" as="targetPoint" />
          </mxGeometry>
        </mxCell>
        <mxCell id="OajQiKBjwdRNWky4LGf--34" value="" style="endArrow=none;html=1;rounded=0;exitX=1;exitY=0.5;exitDx=0;exitDy=0;entryX=0;entryY=0.5;entryDx=0;entryDy=0;" parent="1" source="OajQiKBjwdRNWky4LGf--4" target="OajQiKBjwdRNWky4LGf--16" edge="1">
          <mxGeometry width="50" height="50" relative="1" as="geometry">
            <mxPoint x="620" y="530" as="sourcePoint" />
            <mxPoint x="660" y="530" as="targetPoint" />
          </mxGeometry>
        </mxCell>
        <mxCell id="OajQiKBjwdRNWky4LGf--35" value="" style="endArrow=none;html=1;rounded=0;exitX=1;exitY=0.5;exitDx=0;exitDy=0;entryX=0;entryY=0.5;entryDx=0;entryDy=0;" parent="1" source="OajQiKBjwdRNWky4LGf--16" target="OajQiKBjwdRNWky4LGf--5" edge="1">
          <mxGeometry width="50" height="50" relative="1" as="geometry">
            <mxPoint x="630" y="540" as="sourcePoint" />
            <mxPoint x="670" y="540" as="targetPoint" />
          </mxGeometry>
        </mxCell>
        <mxCell id="OajQiKBjwdRNWky4LGf--36" value="" style="endArrow=none;html=1;rounded=0;exitX=1;exitY=0.5;exitDx=0;exitDy=0;entryX=0;entryY=0.5;entryDx=0;entryDy=0;" parent="1" source="OajQiKBjwdRNWky4LGf--17" target="OajQiKBjwdRNWky4LGf--6" edge="1">
          <mxGeometry width="50" height="50" relative="1" as="geometry">
            <mxPoint x="785" y="130" as="sourcePoint" />
            <mxPoint x="1110" y="490" as="targetPoint" />
          </mxGeometry>
        </mxCell>
        <mxCell id="OajQiKBjwdRNWky4LGf--37" value="" style="endArrow=none;html=1;rounded=0;exitX=1;exitY=0.5;exitDx=0;exitDy=0;entryX=0;entryY=0.5;entryDx=0;entryDy=0;" parent="1" source="OajQiKBjwdRNWky4LGf--2" target="OajQiKBjwdRNWky4LGf--17" edge="1">
          <mxGeometry width="50" height="50" relative="1" as="geometry">
            <mxPoint x="795" y="140" as="sourcePoint" />
            <mxPoint x="860" y="140" as="targetPoint" />
          </mxGeometry>
        </mxCell>
        <mxCell id="OajQiKBjwdRNWky4LGf--40" value="" style="endArrow=none;html=1;rounded=0;exitX=0.5;exitY=0;exitDx=0;exitDy=0;entryX=0.5;entryY=1;entryDx=0;entryDy=0;" parent="1" source="OajQiKBjwdRNWky4LGf--2" target="OajQiKBjwdRNWky4LGf--14" edge="1">
          <mxGeometry width="50" height="50" relative="1" as="geometry">
            <mxPoint x="855" y="600" as="sourcePoint" />
            <mxPoint x="855" y="550" as="targetPoint" />
          </mxGeometry>
        </mxCell>
        <mxCell id="OajQiKBjwdRNWky4LGf--41" value="1,1" style="text;html=1;align=center;verticalAlign=middle;resizable=0;points=[];autosize=1;strokeColor=none;fillColor=none;" parent="1" vertex="1">
          <mxGeometry x="455" y="290" width="40" height="30" as="geometry" />
        </mxCell>
        <mxCell id="OajQiKBjwdRNWky4LGf--42" value="0,N" style="text;html=1;align=center;verticalAlign=middle;resizable=0;points=[];autosize=1;strokeColor=none;fillColor=none;" parent="1" vertex="1">
          <mxGeometry x="390" y="140" width="40" height="30" as="geometry" />
        </mxCell>
        <mxCell id="OajQiKBjwdRNWky4LGf--43" value="1,N" style="text;html=1;align=center;verticalAlign=middle;resizable=0;points=[];autosize=1;strokeColor=none;fillColor=none;" parent="1" vertex="1">
          <mxGeometry x="275" y="320" width="40" height="30" as="geometry" />
        </mxCell>
        <mxCell id="OajQiKBjwdRNWky4LGf--44" value="1,1" style="text;html=1;align=center;verticalAlign=middle;resizable=0;points=[];autosize=1;strokeColor=none;fillColor=none;" parent="1" vertex="1">
          <mxGeometry x="455" y="320" width="40" height="30" as="geometry" />
        </mxCell>
        <mxCell id="OajQiKBjwdRNWky4LGf--45" value="0,N" style="text;html=1;align=center;verticalAlign=middle;resizable=0;points=[];autosize=1;strokeColor=none;fillColor=none;" parent="1" vertex="1">
          <mxGeometry x="390" y="470" width="40" height="30" as="geometry" />
        </mxCell>
        <mxCell id="OajQiKBjwdRNWky4LGf--46" value="1,N" style="text;html=1;align=center;verticalAlign=middle;resizable=0;points=[];autosize=1;strokeColor=none;fillColor=none;" parent="1" vertex="1">
          <mxGeometry x="295" y="90" width="40" height="30" as="geometry" />
        </mxCell>
        <mxCell id="OajQiKBjwdRNWky4LGf--47" value="0,N" style="text;html=1;align=center;verticalAlign=middle;resizable=0;points=[];autosize=1;strokeColor=none;fillColor=none;" parent="1" vertex="1">
          <mxGeometry x="110" y="90" width="40" height="30" as="geometry" />
        </mxCell>
        <mxCell id="OajQiKBjwdRNWky4LGf--48" value="1,1" style="text;html=1;align=center;verticalAlign=middle;resizable=0;points=[];autosize=1;strokeColor=none;fillColor=none;" parent="1" vertex="1">
          <mxGeometry x="560" y="270" width="40" height="30" as="geometry" />
        </mxCell>
        <mxCell id="OajQiKBjwdRNWky4LGf--49" value="1,N" style="text;html=1;align=center;verticalAlign=middle;resizable=0;points=[];autosize=1;strokeColor=none;fillColor=none;" parent="1" vertex="1">
          <mxGeometry x="565" y="140" width="40" height="30" as="geometry" />
        </mxCell>
        <mxCell id="OajQiKBjwdRNWky4LGf--50" value="1,N" style="text;html=1;align=center;verticalAlign=middle;resizable=0;points=[];autosize=1;strokeColor=none;fillColor=none;" parent="1" vertex="1">
          <mxGeometry x="800" y="120" width="40" height="30" as="geometry" />
        </mxCell>
        <mxCell id="OajQiKBjwdRNWky4LGf--51" value="1,1" style="text;html=1;align=center;verticalAlign=middle;resizable=0;points=[];autosize=1;strokeColor=none;fillColor=none;" parent="1" vertex="1">
          <mxGeometry x="610" y="120" width="40" height="30" as="geometry" />
        </mxCell>
        <mxCell id="OajQiKBjwdRNWky4LGf--52" value="1,1" style="text;html=1;align=center;verticalAlign=middle;resizable=0;points=[];autosize=1;strokeColor=none;fillColor=none;" parent="1" vertex="1">
          <mxGeometry x="565" y="340" width="40" height="30" as="geometry" />
        </mxCell>
        <mxCell id="OajQiKBjwdRNWky4LGf--53" value="1,N&amp;nbsp;" style="text;html=1;align=center;verticalAlign=middle;resizable=0;points=[];autosize=1;strokeColor=none;fillColor=none;" parent="1" vertex="1">
          <mxGeometry x="560" y="470" width="50" height="30" as="geometry" />
        </mxCell>
        <mxCell id="OajQiKBjwdRNWky4LGf--54" value="1,N&amp;nbsp;" style="text;html=1;align=center;verticalAlign=middle;resizable=0;points=[];autosize=1;strokeColor=none;fillColor=none;" parent="1" vertex="1">
          <mxGeometry x="610" y="490" width="50" height="30" as="geometry" />
        </mxCell>
        <mxCell id="OajQiKBjwdRNWky4LGf--55" value="1,N&amp;nbsp;" style="text;html=1;align=center;verticalAlign=middle;resizable=0;points=[];autosize=1;strokeColor=none;fillColor=none;" parent="1" vertex="1">
          <mxGeometry x="740" y="490" width="50" height="30" as="geometry" />
        </mxCell>
        <mxCell id="OajQiKBjwdRNWky4LGf--56" value="1,1&amp;nbsp;" style="text;html=1;align=center;verticalAlign=middle;resizable=0;points=[];autosize=1;strokeColor=none;fillColor=none;" parent="1" vertex="1">
          <mxGeometry x="845" y="470" width="40" height="30" as="geometry" />
        </mxCell>
        <mxCell id="OajQiKBjwdRNWky4LGf--57" value="1,N&amp;nbsp;" style="text;html=1;align=center;verticalAlign=middle;resizable=0;points=[];autosize=1;strokeColor=none;fillColor=none;" parent="1" vertex="1">
          <mxGeometry x="845" y="380" width="50" height="30" as="geometry" />
        </mxCell>
        <mxCell id="OajQiKBjwdRNWky4LGf--58" value="1,N&amp;nbsp;" style="text;html=1;align=center;verticalAlign=middle;resizable=0;points=[];autosize=1;strokeColor=none;fillColor=none;" parent="1" vertex="1">
          <mxGeometry x="895" y="490" width="50" height="30" as="geometry" />
        </mxCell>
        <mxCell id="OajQiKBjwdRNWky4LGf--60" value="1,N&amp;nbsp;" style="text;html=1;align=center;verticalAlign=middle;resizable=0;points=[];autosize=1;strokeColor=none;fillColor=none;" parent="1" vertex="1">
          <mxGeometry x="1119" y="440" width="50" height="30" as="geometry" />
        </mxCell>
        <mxCell id="OajQiKBjwdRNWky4LGf--61" value="1,1&amp;nbsp;" style="text;html=1;align=center;verticalAlign=middle;resizable=0;points=[];autosize=1;strokeColor=none;fillColor=none;" parent="1" vertex="1">
          <mxGeometry x="900" y="520" width="40" height="30" as="geometry" />
        </mxCell>
        <mxCell id="OajQiKBjwdRNWky4LGf--62" value="" style="endArrow=none;html=1;rounded=0;exitX=0.5;exitY=0;exitDx=0;exitDy=0;entryX=0.5;entryY=1;entryDx=0;entryDy=0;" parent="1" source="OajQiKBjwdRNWky4LGf--14" target="OajQiKBjwdRNWky4LGf--3" edge="1">
          <mxGeometry width="50" height="50" relative="1" as="geometry">
            <mxPoint x="855" y="510" as="sourcePoint" />
            <mxPoint x="855" y="480" as="targetPoint" />
          </mxGeometry>
        </mxCell>
        <mxCell id="OajQiKBjwdRNWky4LGf--64" value="Jefe" style="rounded=0;whiteSpace=wrap;html=1;" parent="1" vertex="1">
          <mxGeometry x="1160" y="570" width="110" height="40" as="geometry" />
        </mxCell>
        <mxCell id="OajQiKBjwdRNWky4LGf--65" value="" style="endArrow=block;endSize=16;endFill=0;html=1;rounded=0;entryX=0.5;entryY=1;entryDx=0;entryDy=0;exitX=0.5;exitY=0;exitDx=0;exitDy=0;" parent="1" source="OajQiKBjwdRNWky4LGf--64" target="OajQiKBjwdRNWky4LGf--6" edge="1">
          <mxGeometry width="160" relative="1" as="geometry">
            <mxPoint x="1215" y="690" as="sourcePoint" />
            <mxPoint x="1395" y="540" as="targetPoint" />
          </mxGeometry>
        </mxCell>
        <mxCell id="OajQiKBjwdRNWky4LGf--66" value="" style="endArrow=none;html=1;rounded=0;exitX=1;exitY=0.5;exitDx=0;exitDy=0;entryX=0;entryY=0.5;entryDx=0;entryDy=0;" parent="1" source="OajQiKBjwdRNWky4LGf--17" target="OajQiKBjwdRNWky4LGf--64" edge="1">
          <mxGeometry width="50" height="50" relative="1" as="geometry">
            <mxPoint x="1065" y="530" as="sourcePoint" />
            <mxPoint x="1070" y="290" as="targetPoint" />
          </mxGeometry>
        </mxCell>
        <mxCell id="OajQiKBjwdRNWky4LGf--67" value="1,N&amp;nbsp;" style="text;html=1;align=center;verticalAlign=middle;resizable=0;points=[];autosize=1;strokeColor=none;fillColor=none;" parent="1" vertex="1">
          <mxGeometry x="1119" y="580" width="50" height="30" as="geometry" />
        </mxCell>
        <mxCell id="OajQiKBjwdRNWky4LGf--68" value="#MejoraID" style="ellipse;whiteSpace=wrap;html=1;" parent="1" vertex="1">
          <mxGeometry y="170" width="60" height="40" as="geometry" />
        </mxCell>
        <mxCell id="OajQiKBjwdRNWky4LGf--69" value="" style="endArrow=none;html=1;rounded=0;exitX=0.5;exitY=0;exitDx=0;exitDy=0;entryX=0.5;entryY=1;entryDx=0;entryDy=0;" parent="1" source="OajQiKBjwdRNWky4LGf--68" target="OajQiKBjwdRNWky4LGf--10" edge="1">
          <mxGeometry width="50" height="50" relative="1" as="geometry">
            <mxPoint x="70" y="220" as="sourcePoint" />
            <mxPoint x="120" y="170" as="targetPoint" />
          </mxGeometry>
        </mxCell>
        <mxCell id="OajQiKBjwdRNWky4LGf--70" value="#RecompensaID" style="ellipse;whiteSpace=wrap;html=1;" parent="1" vertex="1">
          <mxGeometry x="275" y="10" width="100" height="40" as="geometry" />
        </mxCell>
        <mxCell id="OajQiKBjwdRNWky4LGf--71" value="" style="endArrow=none;html=1;rounded=0;entryX=0.5;entryY=0;entryDx=0;entryDy=0;exitX=0.5;exitY=1;exitDx=0;exitDy=0;" parent="1" source="OajQiKBjwdRNWky4LGf--70" target="OajQiKBjwdRNWky4LGf--9" edge="1">
          <mxGeometry width="50" height="50" relative="1" as="geometry">
            <mxPoint x="400" y="60" as="sourcePoint" />
            <mxPoint x="385" y="-20" as="targetPoint" />
          </mxGeometry>
        </mxCell>
        <mxCell id="OajQiKBjwdRNWky4LGf--72" value="#RunaID" style="ellipse;whiteSpace=wrap;html=1;" parent="1" vertex="1">
          <mxGeometry x="180" y="375" width="60" height="40" as="geometry" />
        </mxCell>
        <mxCell id="OajQiKBjwdRNWky4LGf--73" value="#LogroID" style="ellipse;whiteSpace=wrap;html=1;" parent="1" vertex="1">
          <mxGeometry x="165" y="570" width="60" height="40" as="geometry" />
        </mxCell>
        <mxCell id="OajQiKBjwdRNWky4LGf--74" value="#EncuentroID" style="ellipse;whiteSpace=wrap;html=1;" parent="1" vertex="1">
          <mxGeometry x="448.75" y="577.5" width="85" height="45" as="geometry" />
        </mxCell>
        <mxCell id="OajQiKBjwdRNWky4LGf--75" value="#ZonaID" style="ellipse;whiteSpace=wrap;html=1;" parent="1" vertex="1">
          <mxGeometry x="775" y="580" width="60" height="40" as="geometry" />
        </mxCell>
        <mxCell id="OajQiKBjwdRNWky4LGf--76" value="#EscenarioID" style="ellipse;whiteSpace=wrap;html=1;" parent="1" vertex="1">
          <mxGeometry x="775" y="250" width="95" height="40" as="geometry" />
        </mxCell>
        <mxCell id="OajQiKBjwdRNWky4LGf--77" value="#JefeID" style="ellipse;whiteSpace=wrap;html=1;" parent="1" vertex="1">
          <mxGeometry x="1125" y="630" width="60" height="40" as="geometry" />
        </mxCell>
        <mxCell id="OajQiKBjwdRNWky4LGf--78" value="#EnemigoID" style="ellipse;whiteSpace=wrap;html=1;" parent="1" vertex="1">
          <mxGeometry x="1119" y="350" width="80" height="40" as="geometry" />
        </mxCell>
        <mxCell id="OajQiKBjwdRNWky4LGf--79" value="#UserID" style="ellipse;whiteSpace=wrap;html=1;" parent="1" vertex="1">
          <mxGeometry x="665" y="240" width="60" height="40" as="geometry" />
        </mxCell>
        <mxCell id="OajQiKBjwdRNWky4LGf--80" value="#ArmaID" style="ellipse;whiteSpace=wrap;html=1;" parent="1" vertex="1">
          <mxGeometry x="490" y="10" width="60" height="40" as="geometry" />
        </mxCell>
        <mxCell id="OajQiKBjwdRNWky4LGf--81" value="#SkinID" style="ellipse;whiteSpace=wrap;html=1;" parent="1" vertex="1">
          <mxGeometry x="790" y="20" width="60" height="40" as="geometry" />
        </mxCell>
        <mxCell id="OajQiKBjwdRNWky4LGf--82" value="" style="endArrow=none;html=1;rounded=0;exitX=0.5;exitY=1;exitDx=0;exitDy=0;entryX=0.5;entryY=0;entryDx=0;entryDy=0;" parent="1" source="OajQiKBjwdRNWky4LGf--8" target="OajQiKBjwdRNWky4LGf--72" edge="1">
          <mxGeometry width="50" height="50" relative="1" as="geometry">
            <mxPoint x="410" y="430" as="sourcePoint" />
            <mxPoint x="460" y="380" as="targetPoint" />
          </mxGeometry>
        </mxCell>
        <mxCell id="OajQiKBjwdRNWky4LGf--83" value="" style="endArrow=none;html=1;rounded=0;exitX=0.5;exitY=1;exitDx=0;exitDy=0;entryX=0.5;entryY=0;entryDx=0;entryDy=0;" parent="1" source="OajQiKBjwdRNWky4LGf--12" target="OajQiKBjwdRNWky4LGf--73" edge="1">
          <mxGeometry width="50" height="50" relative="1" as="geometry">
            <mxPoint x="230" y="350" as="sourcePoint" />
            <mxPoint x="205" y="385" as="targetPoint" />
          </mxGeometry>
        </mxCell>
        <mxCell id="OajQiKBjwdRNWky4LGf--84" value="" style="endArrow=none;html=1;rounded=0;exitX=0.5;exitY=1;exitDx=0;exitDy=0;entryX=0.5;entryY=0;entryDx=0;entryDy=0;" parent="1" source="OajQiKBjwdRNWky4LGf--11" target="OajQiKBjwdRNWky4LGf--74" edge="1">
          <mxGeometry width="50" height="50" relative="1" as="geometry">
            <mxPoint x="400" y="550" as="sourcePoint" />
            <mxPoint x="375" y="585" as="targetPoint" />
          </mxGeometry>
        </mxCell>
        <mxCell id="OajQiKBjwdRNWky4LGf--85" value="" style="endArrow=none;html=1;rounded=0;exitX=1;exitY=0.5;exitDx=0;exitDy=0;entryX=0;entryY=0.5;entryDx=0;entryDy=0;" parent="1" source="OajQiKBjwdRNWky4LGf--1" target="OajQiKBjwdRNWky4LGf--79" edge="1">
          <mxGeometry width="50" height="50" relative="1" as="geometry">
            <mxPoint x="565" y="550" as="sourcePoint" />
            <mxPoint x="545" y="585" as="targetPoint" />
          </mxGeometry>
        </mxCell>
        <mxCell id="OajQiKBjwdRNWky4LGf--86" value="" style="endArrow=none;html=1;rounded=0;exitX=0.5;exitY=0;exitDx=0;exitDy=0;entryX=0.5;entryY=1;entryDx=0;entryDy=0;" parent="1" source="OajQiKBjwdRNWky4LGf--75" target="OajQiKBjwdRNWky4LGf--2" edge="1">
          <mxGeometry width="50" height="50" relative="1" as="geometry">
            <mxPoint x="620" y="330" as="sourcePoint" />
            <mxPoint x="680" y="330" as="targetPoint" />
          </mxGeometry>
        </mxCell>
        <mxCell id="OajQiKBjwdRNWky4LGf--87" value="" style="endArrow=none;html=1;rounded=0;exitX=0.5;exitY=1;exitDx=0;exitDy=0;entryX=0.5;entryY=0;entryDx=0;entryDy=0;" parent="1" source="OajQiKBjwdRNWky4LGf--76" target="OajQiKBjwdRNWky4LGf--3" edge="1">
          <mxGeometry width="50" height="50" relative="1" as="geometry">
            <mxPoint x="820" y="610" as="sourcePoint" />
            <mxPoint x="855" y="550" as="targetPoint" />
          </mxGeometry>
        </mxCell>
        <mxCell id="OajQiKBjwdRNWky4LGf--88" value="" style="endArrow=none;html=1;rounded=0;exitX=0.5;exitY=1;exitDx=0;exitDy=0;entryX=0.5;entryY=0;entryDx=0;entryDy=0;" parent="1" source="OajQiKBjwdRNWky4LGf--80" target="OajQiKBjwdRNWky4LGf--4" edge="1">
          <mxGeometry width="50" height="50" relative="1" as="geometry">
            <mxPoint x="815" y="300" as="sourcePoint" />
            <mxPoint x="855" y="350" as="targetPoint" />
          </mxGeometry>
        </mxCell>
        <mxCell id="OajQiKBjwdRNWky4LGf--89" value="" style="endArrow=none;html=1;rounded=0;exitX=0.5;exitY=1;exitDx=0;exitDy=0;entryX=0.5;entryY=0;entryDx=0;entryDy=0;" parent="1" source="OajQiKBjwdRNWky4LGf--81" target="OajQiKBjwdRNWky4LGf--5" edge="1">
          <mxGeometry width="50" height="50" relative="1" as="geometry">
            <mxPoint x="825" y="310" as="sourcePoint" />
            <mxPoint x="865" y="360" as="targetPoint" />
          </mxGeometry>
        </mxCell>
        <mxCell id="OajQiKBjwdRNWky4LGf--90" value="" style="endArrow=none;html=1;rounded=0;exitX=0.5;exitY=0;exitDx=0;exitDy=0;entryX=0.5;entryY=1;entryDx=0;entryDy=0;" parent="1" source="OajQiKBjwdRNWky4LGf--77" target="OajQiKBjwdRNWky4LGf--64" edge="1">
          <mxGeometry width="50" height="50" relative="1" as="geometry">
            <mxPoint x="820" y="610" as="sourcePoint" />
            <mxPoint x="855" y="550" as="targetPoint" />
          </mxGeometry>
        </mxCell>
        <mxCell id="OajQiKBjwdRNWky4LGf--91" value="" style="endArrow=none;html=1;rounded=0;exitX=0.5;exitY=1;exitDx=0;exitDy=0;entryX=0.5;entryY=0;entryDx=0;entryDy=0;" parent="1" source="OajQiKBjwdRNWky4LGf--78" target="OajQiKBjwdRNWky4LGf--6" edge="1">
          <mxGeometry width="50" height="50" relative="1" as="geometry">
            <mxPoint x="830" y="620" as="sourcePoint" />
            <mxPoint x="865" y="560" as="targetPoint" />
          </mxGeometry>
        </mxCell>
        <mxCell id="Yh61ye7VYMvuM4sxJRNI-1" value="NombreRuna" style="ellipse;whiteSpace=wrap;html=1;" vertex="1" parent="1">
          <mxGeometry x="250" y="372.5" width="80" height="45" as="geometry" />
        </mxCell>
        <mxCell id="Yh61ye7VYMvuM4sxJRNI-2" value="Descripcion" style="ellipse;whiteSpace=wrap;html=1;" vertex="1" parent="1">
          <mxGeometry x="100" y="372.5" width="70" height="40" as="geometry" />
        </mxCell>
        <mxCell id="Yh61ye7VYMvuM4sxJRNI-3" value="Descripcion" style="ellipse;whiteSpace=wrap;html=1;" vertex="1" parent="1">
          <mxGeometry x="70" y="170" width="70" height="40" as="geometry" />
        </mxCell>
        <mxCell id="Yh61ye7VYMvuM4sxJRNI-4" value="Descripcion" style="ellipse;whiteSpace=wrap;html=1;" vertex="1" parent="1">
          <mxGeometry x="395" y="10" width="70" height="40" as="geometry" />
        </mxCell>
        <mxCell id="Yh61ye7VYMvuM4sxJRNI-7" value="Duracion" style="ellipse;whiteSpace=wrap;html=1;" vertex="1" parent="1">
          <mxGeometry x="585" y="572.5" width="85" height="45" as="geometry" />
        </mxCell>
        <mxCell id="Yh61ye7VYMvuM4sxJRNI-10" value="" style="endArrow=none;html=1;rounded=0;exitX=0.5;exitY=1;exitDx=0;exitDy=0;entryX=0.5;entryY=0;entryDx=0;entryDy=0;" edge="1" parent="1" source="OajQiKBjwdRNWky4LGf--11" target="Yh61ye7VYMvuM4sxJRNI-7">
          <mxGeometry width="50" height="50" relative="1" as="geometry">
            <mxPoint x="565" y="550" as="sourcePoint" />
            <mxPoint x="683" y="583" as="targetPoint" />
          </mxGeometry>
        </mxCell>
        <mxCell id="Yh61ye7VYMvuM4sxJRNI-11" value="" style="endArrow=none;html=1;rounded=0;exitX=0.5;exitY=0;exitDx=0;exitDy=0;entryX=0.5;entryY=1;entryDx=0;entryDy=0;" edge="1" parent="1" source="Yh61ye7VYMvuM4sxJRNI-3" target="OajQiKBjwdRNWky4LGf--10">
          <mxGeometry width="50" height="50" relative="1" as="geometry">
            <mxPoint x="40" y="180" as="sourcePoint" />
            <mxPoint x="65" y="150" as="targetPoint" />
          </mxGeometry>
        </mxCell>
        <mxCell id="Yh61ye7VYMvuM4sxJRNI-12" value="" style="endArrow=none;html=1;rounded=0;exitX=0.5;exitY=1;exitDx=0;exitDy=0;entryX=0.5;entryY=0;entryDx=0;entryDy=0;" edge="1" parent="1" source="Yh61ye7VYMvuM4sxJRNI-4" target="OajQiKBjwdRNWky4LGf--9">
          <mxGeometry width="50" height="50" relative="1" as="geometry">
            <mxPoint x="50" y="190" as="sourcePoint" />
            <mxPoint x="75" y="160" as="targetPoint" />
          </mxGeometry>
        </mxCell>
        <mxCell id="Yh61ye7VYMvuM4sxJRNI-13" value="" style="endArrow=none;html=1;rounded=0;exitX=0.5;exitY=1;exitDx=0;exitDy=0;entryX=0.5;entryY=0;entryDx=0;entryDy=0;" edge="1" parent="1" source="OajQiKBjwdRNWky4LGf--8" target="Yh61ye7VYMvuM4sxJRNI-1">
          <mxGeometry width="50" height="50" relative="1" as="geometry">
            <mxPoint x="230" y="350" as="sourcePoint" />
            <mxPoint x="205" y="385" as="targetPoint" />
          </mxGeometry>
        </mxCell>
        <mxCell id="Yh61ye7VYMvuM4sxJRNI-14" value="" style="endArrow=none;html=1;rounded=0;exitX=0.5;exitY=1;exitDx=0;exitDy=0;entryX=0.5;entryY=0;entryDx=0;entryDy=0;" edge="1" parent="1" source="OajQiKBjwdRNWky4LGf--8" target="Yh61ye7VYMvuM4sxJRNI-2">
          <mxGeometry width="50" height="50" relative="1" as="geometry">
            <mxPoint x="240" y="360" as="sourcePoint" />
            <mxPoint x="215" y="395" as="targetPoint" />
          </mxGeometry>
        </mxCell>
        <mxCell id="Yh61ye7VYMvuM4sxJRNI-15" value="nombreLogro" style="ellipse;whiteSpace=wrap;html=1;" vertex="1" parent="1">
          <mxGeometry x="240" y="570" width="80" height="40" as="geometry" />
        </mxCell>
        <mxCell id="Yh61ye7VYMvuM4sxJRNI-16" value="descripcion" style="ellipse;whiteSpace=wrap;html=1;" vertex="1" parent="1">
          <mxGeometry x="330" y="570" width="80" height="40" as="geometry" />
        </mxCell>
        <mxCell id="Yh61ye7VYMvuM4sxJRNI-17" value="" style="endArrow=none;html=1;rounded=0;exitX=0.5;exitY=1;exitDx=0;exitDy=0;entryX=0.5;entryY=0;entryDx=0;entryDy=0;" edge="1" parent="1" source="OajQiKBjwdRNWky4LGf--12" target="Yh61ye7VYMvuM4sxJRNI-15">
          <mxGeometry width="50" height="50" relative="1" as="geometry">
            <mxPoint x="400" y="550" as="sourcePoint" />
            <mxPoint x="205" y="580" as="targetPoint" />
          </mxGeometry>
        </mxCell>
        <mxCell id="Yh61ye7VYMvuM4sxJRNI-18" value="" style="endArrow=none;html=1;rounded=0;exitX=0.5;exitY=1;exitDx=0;exitDy=0;entryX=0.5;entryY=0;entryDx=0;entryDy=0;" edge="1" parent="1" source="OajQiKBjwdRNWky4LGf--12" target="Yh61ye7VYMvuM4sxJRNI-16">
          <mxGeometry width="50" height="50" relative="1" as="geometry">
            <mxPoint x="410" y="560" as="sourcePoint" />
            <mxPoint x="215" y="590" as="targetPoint" />
          </mxGeometry>
        </mxCell>
        <mxCell id="Yh61ye7VYMvuM4sxJRNI-20" value="nombreArma" style="ellipse;whiteSpace=wrap;html=1;" vertex="1" parent="1">
          <mxGeometry x="560" y="10" width="80" height="40" as="geometry" />
        </mxCell>
        <mxCell id="Yh61ye7VYMvuM4sxJRNI-21" value="" style="endArrow=none;html=1;rounded=0;exitX=0.5;exitY=1;exitDx=0;exitDy=0;entryX=0.5;entryY=0;entryDx=0;entryDy=0;" edge="1" parent="1" source="Yh61ye7VYMvuM4sxJRNI-20" target="OajQiKBjwdRNWky4LGf--4">
          <mxGeometry width="50" height="50" relative="1" as="geometry">
            <mxPoint x="530" y="60" as="sourcePoint" />
            <mxPoint x="565" y="110" as="targetPoint" />
          </mxGeometry>
        </mxCell>
        <mxCell id="Yh61ye7VYMvuM4sxJRNI-22" value="tipoArma" style="ellipse;whiteSpace=wrap;html=1;" vertex="1" parent="1">
          <mxGeometry x="655" y="10" width="80" height="40" as="geometry" />
        </mxCell>
        <mxCell id="Yh61ye7VYMvuM4sxJRNI-23" value="" style="endArrow=none;html=1;rounded=0;exitX=0.5;exitY=1;exitDx=0;exitDy=0;entryX=0.5;entryY=0;entryDx=0;entryDy=0;" edge="1" parent="1" source="Yh61ye7VYMvuM4sxJRNI-22" target="OajQiKBjwdRNWky4LGf--4">
          <mxGeometry width="50" height="50" relative="1" as="geometry">
            <mxPoint x="625" y="60" as="sourcePoint" />
            <mxPoint x="650" y="100" as="targetPoint" />
          </mxGeometry>
        </mxCell>
        <mxCell id="Yh61ye7VYMvuM4sxJRNI-24" value="Nombre" style="ellipse;whiteSpace=wrap;html=1;" vertex="1" parent="1">
          <mxGeometry x="665" y="300" width="60" height="40" as="geometry" />
        </mxCell>
        <mxCell id="Yh61ye7VYMvuM4sxJRNI-25" value="Detalles" style="ellipse;whiteSpace=wrap;html=1;" vertex="1" parent="1">
          <mxGeometry x="665" y="360" width="60" height="40" as="geometry" />
        </mxCell>
        <mxCell id="Yh61ye7VYMvuM4sxJRNI-26" value="" style="endArrow=none;html=1;rounded=0;exitX=1;exitY=0.5;exitDx=0;exitDy=0;entryX=0;entryY=0.5;entryDx=0;entryDy=0;" edge="1" parent="1" source="OajQiKBjwdRNWky4LGf--1" target="Yh61ye7VYMvuM4sxJRNI-24">
          <mxGeometry width="50" height="50" relative="1" as="geometry">
            <mxPoint x="620" y="330" as="sourcePoint" />
            <mxPoint x="675" y="270" as="targetPoint" />
          </mxGeometry>
        </mxCell>
        <mxCell id="Yh61ye7VYMvuM4sxJRNI-27" value="" style="endArrow=none;html=1;rounded=0;exitX=1;exitY=0.5;exitDx=0;exitDy=0;entryX=0;entryY=0.5;entryDx=0;entryDy=0;" edge="1" parent="1" source="OajQiKBjwdRNWky4LGf--1" target="Yh61ye7VYMvuM4sxJRNI-25">
          <mxGeometry width="50" height="50" relative="1" as="geometry">
            <mxPoint x="630" y="340" as="sourcePoint" />
            <mxPoint x="685" y="280" as="targetPoint" />
          </mxGeometry>
        </mxCell>
        <mxCell id="Yh61ye7VYMvuM4sxJRNI-28" value="Descripcion" style="ellipse;whiteSpace=wrap;html=1;" vertex="1" parent="1">
          <mxGeometry x="865" y="20" width="75" height="40" as="geometry" />
        </mxCell>
        <mxCell id="Yh61ye7VYMvuM4sxJRNI-30" value="" style="endArrow=none;html=1;rounded=0;exitX=0.5;exitY=1;exitDx=0;exitDy=0;entryX=0.5;entryY=0;entryDx=0;entryDy=0;" edge="1" parent="1" source="Yh61ye7VYMvuM4sxJRNI-28" target="OajQiKBjwdRNWky4LGf--5">
          <mxGeometry width="50" height="50" relative="1" as="geometry">
            <mxPoint x="830" y="70" as="sourcePoint" />
            <mxPoint x="905" y="110" as="targetPoint" />
          </mxGeometry>
        </mxCell>
        <mxCell id="Yh61ye7VYMvuM4sxJRNI-31" value="NombreEscenario" style="ellipse;whiteSpace=wrap;html=1;" vertex="1" parent="1">
          <mxGeometry x="880" y="250" width="105" height="40" as="geometry" />
        </mxCell>
        <mxCell id="Yh61ye7VYMvuM4sxJRNI-32" value="" style="endArrow=none;html=1;rounded=0;exitX=0.5;exitY=1;exitDx=0;exitDy=0;entryX=0.5;entryY=0;entryDx=0;entryDy=0;" edge="1" parent="1" source="Yh61ye7VYMvuM4sxJRNI-31" target="OajQiKBjwdRNWky4LGf--3">
          <mxGeometry width="50" height="50" relative="1" as="geometry">
            <mxPoint x="833" y="300" as="sourcePoint" />
            <mxPoint x="855" y="350" as="targetPoint" />
          </mxGeometry>
        </mxCell>
        <mxCell id="Yh61ye7VYMvuM4sxJRNI-33" value="NombreZona" style="ellipse;whiteSpace=wrap;html=1;" vertex="1" parent="1">
          <mxGeometry x="850" y="580" width="85" height="40" as="geometry" />
        </mxCell>
        <mxCell id="Yh61ye7VYMvuM4sxJRNI-34" value="" style="endArrow=none;html=1;rounded=0;exitX=0.5;exitY=0;exitDx=0;exitDy=0;entryX=0.5;entryY=1;entryDx=0;entryDy=0;" edge="1" parent="1" source="Yh61ye7VYMvuM4sxJRNI-33" target="OajQiKBjwdRNWky4LGf--2">
          <mxGeometry width="50" height="50" relative="1" as="geometry">
            <mxPoint x="790" y="610" as="sourcePoint" />
            <mxPoint x="855" y="550" as="targetPoint" />
          </mxGeometry>
        </mxCell>
        <mxCell id="Yh61ye7VYMvuM4sxJRNI-35" value="NombreEnemigo" style="ellipse;whiteSpace=wrap;html=1;" vertex="1" parent="1">
          <mxGeometry x="1209" y="350" width="110" height="40" as="geometry" />
        </mxCell>
        <mxCell id="Yh61ye7VYMvuM4sxJRNI-36" value="" style="endArrow=none;html=1;rounded=0;exitX=0.5;exitY=1;exitDx=0;exitDy=0;entryX=0.5;entryY=0;entryDx=0;entryDy=0;" edge="1" parent="1" source="Yh61ye7VYMvuM4sxJRNI-35" target="OajQiKBjwdRNWky4LGf--6">
          <mxGeometry width="50" height="50" relative="1" as="geometry">
            <mxPoint x="1210" y="400" as="sourcePoint" />
            <mxPoint x="1225" y="450" as="targetPoint" />
          </mxGeometry>
        </mxCell>
        <mxCell id="Yh61ye7VYMvuM4sxJRNI-37" value="NombreJefe" style="ellipse;whiteSpace=wrap;html=1;" vertex="1" parent="1">
          <mxGeometry x="1245" y="630" width="75" height="40" as="geometry" />
        </mxCell>
        <mxCell id="Yh61ye7VYMvuM4sxJRNI-38" value="" style="endArrow=none;html=1;rounded=0;exitX=0.5;exitY=0;exitDx=0;exitDy=0;entryX=0.5;entryY=1;entryDx=0;entryDy=0;" edge="1" parent="1" source="Yh61ye7VYMvuM4sxJRNI-37" target="OajQiKBjwdRNWky4LGf--64">
          <mxGeometry width="50" height="50" relative="1" as="geometry">
            <mxPoint x="1154" y="670" as="sourcePoint" />
            <mxPoint x="1225" y="620" as="targetPoint" />
          </mxGeometry>
        </mxCell>
      </root>
    </mxGraphModel>
  </diagram>
</mxfile>
